HIERARCHY
ROOT Hips
{
	OFFSET 0.000000 0.000000 0.000000
	CHANNELS 6 Xposition Yposition Zposition Xrotation Yrotation Zrotation
	JOINT LeftUpLeg_virtual
	{
		OFFSET 0.000000 0.000000 0.000000
		CHANNELS 3 Xrotation Yrotation Zrotation
		JOINT LeftUpLeg
		{
			OFFSET 11.394100 -6.187798 -0.413800
			CHANNELS 3 Xrotation Yrotation Zrotation
			JOINT LeftLeg
			{
				OFFSET 0.430247 -32.302673 3.732800
				CHANNELS 3 Xrotation Yrotation Zrotation
				JOINT LeftFoot
				{
					OFFSET -0.430247 -48.264931 -6.423300
					CHANNELS 3 Xrotation Yrotation Zrotation
					JOINT LeftToeBase
					{
						OFFSET 4.230900 -16.068199 23.438400
						CHANNELS 3 Xrotation Yrotation Zrotation
						JOINT LeftToe_End
						{
							OFFSET 4.510700 0.695400 19.974600
							CHANNELS 3 Xrotation Yrotation Zrotation
							End Site
							{
								OFFSET 0 0 0
							}
						}
					}
				}
			}
		}
	}
	JOINT RightUpLeg_virtual
	{
		OFFSET 0.000000 0.000000 0.000000
		CHANNELS 3 Xrotation Yrotation Zrotation
		JOINT RightUpLeg
		{
			OFFSET -11.333700 -6.187798 -0.413800
			CHANNELS 3 Xrotation Yrotation Zrotation
			JOINT RightLeg
			{
				OFFSET -0.430392 -32.302628 3.733000
				CHANNELS 3 Xrotation Yrotation Zrotation
				JOINT RightFoot
				{
					OFFSET 0.430392 -48.264973 -6.423500
					CHANNELS 3 Xrotation Yrotation Zrotation
					JOINT RightToeBase
					{
						OFFSET -4.230900 -16.068199 23.438400
						CHANNELS 3 Xrotation Yrotation Zrotation
						JOINT RightToe_End
						{
							OFFSET -4.510700 0.695400 19.974600
							CHANNELS 3 Xrotation Yrotation Zrotation
							End Site
							{
								OFFSET 0 0 0
							}
						}
					}
				}
			}
		}
	}
	JOINT Spine_virtual
	{
		OFFSET 0.000000 0.000000 0.000000
		CHANNELS 3 Xrotation Yrotation Zrotation
		JOINT Spine
		{
			OFFSET -0.002400 12.777504 0.315300
			CHANNELS 3 Xrotation Yrotation Zrotation
			JOINT Spine1
			{
				OFFSET -0.002067 5.816869 0.032633
				CHANNELS 3 Xrotation Yrotation Zrotation
				JOINT Spine1_split
				{
					OFFSET -0.002067 5.816869 0.032633
					CHANNELS 3 Xrotation Yrotation Zrotation
					JOINT Spine2
					{
						OFFSET -0.002067 5.816869 0.032633
						CHANNELS 3 Xrotation Yrotation Zrotation
						JOINT Neck_virtual
						{
							OFFSET 0.000000 0.000000 0.000000
							CHANNELS 3 Xrotation Yrotation Zrotation
							JOINT Neck
							{
								OFFSET -0.003700 21.199493 -0.826900
								CHANNELS 3 Xrotation Yrotation Zrotation
								JOINT Head
								{
									OFFSET 0.000000 20.442200 4.834800
									CHANNELS 3 Xrotation Yrotation Zrotation
									JOINT HeadTop_End
									{
										OFFSET 0.000000 34.668396 4.968400
										CHANNELS 3 Xrotation Yrotation Zrotation
										End Site
										{
											OFFSET 0 0 0
										}
									}
								}
							}
						}
						JOINT LeftShoulder_virtual
						{
							OFFSET 0.000000 0.000000 0.000000
							CHANNELS 3 Xrotation Yrotation Zrotation
							JOINT LeftShoulder
							{
								OFFSET 3.288150 8.794197 -1.372250
								CHANNELS 3 Xrotation Yrotation Zrotation
								JOINT LeftShoulder_split
								{
									OFFSET 3.288150 8.794197 -1.372250
									CHANNELS 3 Xrotation Yrotation Zrotation
									JOINT LeftArm
									{
										OFFSET 11.953299 -2.279007 -0.146200
										CHANNELS 3 Xrotation Yrotation Zrotation
										JOINT LeftForeArm
										{
											OFFSET 18.448900 0.000000 0.000000
											CHANNELS 3 Xrotation Yrotation Zrotation
											JOINT LeftHand
											{
												OFFSET 29.527798 0.000000 0.000000
												CHANNELS 3 Xrotation Yrotation Zrotation
												End Site
												{
													OFFSET 0 0 0
												}
											}
										}
									}
								}
							}
						}
						JOINT RightShoulder_virtual
						{
							OFFSET 0.000000 0.000000 0.000000
							CHANNELS 3 Xrotation Yrotation Zrotation
							JOINT RightShoulder
							{
								OFFSET -3.249400 8.794197 -1.372250
								CHANNELS 3 Xrotation Yrotation Zrotation
								JOINT RightShoulder_split
								{
									OFFSET -3.249400 8.794197 -1.372250
									CHANNELS 3 Xrotation Yrotation Zrotation
									JOINT RightArm
									{
										OFFSET -11.953299 -2.279007 -0.146200
										CHANNELS 3 Xrotation Yrotation Zrotation
										JOINT RightForeArm
										{
											OFFSET -18.448900 0.000000 0.000000
											CHANNELS 3 Xrotation Yrotation Zrotation
											JOINT RightHand
											{
												OFFSET -29.527802 0.000000 0.000000
												CHANNELS 3 Xrotation Yrotation Zrotation
												End Site
												{
													OFFSET 0 0 0
												}
											}
										}
									}
								}
							}
						}
					}
				}
			}
		}
	}
}
MOTION
Frames: 10
Frame Time: 0.03333333
21.914158 238.375916 50.913696 0.000000 0.000000 0.000000 -0.862315 34.261294 1.011023 -36.804823 31.172399 19.872948 36.344902 -13.144084 5.494839 12.502980 -14.228988 -21.336816 12.557883 -1.878760 -0.245318 0.000000 0.000000 0.000000 1.529919 32.024011 0.076220 -51.950914 -4.780095 -11.245785 -0.426986 12.690907 -0.451385 21.274629 2.351244 10.355304 15.246531 -1.370472 -2.981766 0.000000 0.000000 0.000000 1.618490 41.850837 0.119201 6.799677 -4.198151 -0.474902 15.626426 -6.123020 4.653627 0.283219 0.376838 -0.248517 0.000000 0.000000 0.000000 15.243684 -3.743251 5.194466 -5.926979 7.666488 -16.155969 -17.580804 -51.115319 -12.706606 0.000000 0.000000 0.000000 11.245243 -5.285152 1.757498 0.306466 2.887896 6.521918 6.379462 -0.737643 4.529968 -131.922659 -71.433677 -139.694048 -69.412317 -78.306104 -69.421408 0.000000 0.000000 0.000000 15.006282 -4.364478 3.770460 -2.259995 11.314756 3.174243 0.307993 -4.140966 3.327135 -20.405527 45.020079 55.776773 -23.777558 42.936830 20.528591 0.000000 0.000000 0.000000 
21.885525 231.971451 55.601376 0.000000 0.000000 0.000000 -1.918648 32.561206 1.674196 -35.011317 30.989658 19.763077 35.665592 -12.046641 5.357581 10.800396 -14.846477 -25.389113 15.342502 -2.135851 -0.284559 0.000000 0.000000 0.000000 0.666029 30.779407 0.721181 -51.549091 -3.407954 -10.391908 1.837674 13.928553 -0.400614 26.728895 4.390455 9.831552 19.518095 -0.882319 -1.320794 0.000000 0.000000 0.000000 -0.963962 40.486681 1.816173 7.200341 -2.921972 0.176611 15.570331 -5.990220 4.350232 0.178422 0.431913 -0.228086 0.000000 0.000000 0.000000 15.255188 -3.662250 4.733430 -3.800745 6.764989 -17.125451 -17.654212 -58.472894 -12.783350 0.000000 0.000000 0.000000 11.769629 -5.269443 1.653146 0.423772 2.303566 7.005692 7.067210 -0.237694 3.524994 -124.757312 -70.884441 -132.015290 -64.780376 -78.573198 -64.838596 0.000000 0.000000 0.000000 15.494463 -4.228544 3.678676 -2.250396 11.678592 2.057438 0.477090 -3.546503 3.491657 -23.018506 45.544839 55.774252 -23.600175 40.143928 19.934049 0.000000 0.000000 0.000000 
21.652239 224.416687 60.250458 0.000000 0.000000 0.000000 -2.355206 31.053257 2.056434 -31.852905 31.070216 18.644806 33.371164 -9.270634 5.156523 8.510154 -13.731896 -27.603284 16.816979 -2.322647 -1.676533 0.000000 0.000000 0.000000 0.203272 30.102594 1.121196 -51.074229 -2.757131 -9.542870 3.711182 14.321594 -0.341719 32.037655 5.165009 9.827474 19.791479 -0.420927 -1.933399 0.000000 0.000000 0.000000 -2.241950 38.744644 2.840313 7.284449 -1.803688 0.808203 15.299624 -5.488176 3.843888 0.091117 0.457892 -0.161352 0.000000 0.000000 0.000000 14.792641 -3.275681 3.980980 -1.643956 5.941738 -17.058097 -18.828477 -65.302831 -14.192719 0.000000 0.000000 0.000000 12.243265 -4.883523 1.447280 0.398876 1.820305 7.741148 7.789904 0.701673 2.028871 -116.053657 -69.275515 -122.595325 -51.646544 -77.592103 -51.900907 0.000000 0.000000 0.000000 15.798419 -3.767973 3.280443 -2.305778 11.453012 0.218318 0.860284 -3.355823 4.482607 -24.870370 45.453027 56.912517 -24.507385 40.553767 20.234852 0.000000 0.000000 0.000000 
21.406345 215.680206 64.788620 0.000000 0.000000 0.000000 -2.409334 30.020078 2.353639 -28.667154 30.962422 17.085769 29.251873 -6.314109 5.355839 7.508194 -12.569963 -29.043095 14.818336 -2.391201 -3.469217 0.000000 0.000000 0.000000 0.403801 30.015580 1.341429 -47.764650 -3.566691 -8.116318 3.416224 13.112957 -0.517129 32.631895 4.083119 9.876424 14.347847 0.063399 -4.875792 0.000000 0.000000 0.000000 -2.263748 37.175791 3.380331 7.031893 -1.007495 1.242328 14.875334 -4.681124 3.222943 0.062945 0.402123 -0.045239 0.000000 0.000000 0.000000 13.955396 -2.615624 3.029772 -0.057717 5.363902 -15.735738 -21.538003 -70.961110 -17.331979 0.000000 0.000000 0.000000 12.655654 -4.200035 1.216013 0.183363 1.580933 8.796689 8.584696 1.517752 0.307680 -108.333227 -67.141128 -114.161380 -38.391223 -75.093702 -38.935101 0.000000 0.000000 0.000000 15.842525 -3.106329 2.622888 -2.411187 10.660329 -1.925518 1.635232 -3.175290 5.631691 -25.962977 44.788395 59.414033 -26.555762 44.581014 21.677282 0.000000 0.000000 0.000000 
21.092451 205.867111 69.585464 0.000000 0.000000 0.000000 -2.376399 29.541275 2.770962 -25.982190 30.740550 15.666618 23.133987 -4.257911 5.963164 8.820851 -12.443842 -29.733897 8.819141 -2.272419 -4.596731 0.000000 0.000000 0.000000 0.550439 30.443536 1.815771 -41.860758 -5.514484 -6.416285 1.476373 10.199644 -1.201420 29.250207 1.117488 9.252379 9.494649 1.042629 -8.522614 0.000000 0.000000 0.000000 -1.268032 35.661797 3.351186 6.429983 -0.599230 1.350325 14.373185 -3.606179 2.659597 0.129805 0.327883 0.025331 0.000000 0.000000 0.000000 12.785966 -1.656403 2.137441 0.757769 4.941593 -13.297945 -26.466496 -75.371561 -22.454696 0.000000 0.000000 0.000000 12.925114 -3.281673 1.163726 -0.196974 1.410518 10.110475 8.699112 2.632827 -1.649897 -102.072266 -65.024145 -107.502219 -29.622968 -71.640119 -30.484429 0.000000 0.000000 0.000000 15.484023 -2.278670 1.915015 -2.457362 9.466903 -4.101749 2.696525 -3.078517 6.833850 -25.914245 43.792017 62.754836 -29.706108 51.142435 24.391114 0.000000 0.000000 0.000000 
20.500877 195.009460 75.386703 0.000000 0.000000 0.000000 -2.168145 30.188722 3.240897 -23.870917 30.594709 14.630094 15.219647 -3.210008 6.592540 11.964015 -13.353721 -29.503572 1.234335 -2.039228 -4.588443 0.000000 0.000000 0.000000 -0.019048 30.750024 2.756881 -35.976068 -7.298478 -4.985230 -0.646726 6.710431 -2.356384 25.068826 -2.322234 9.080501 9.601360 2.051255 -11.715865 0.000000 0.000000 0.000000 0.442114 34.627447 2.771247 5.468488 -0.587930 1.092069 13.772230 -2.375610 2.392121 0.181932 0.191254 0.046362 0.000000 0.000000 0.000000 11.524827 -0.454766 1.616114 0.585773 4.554039 -9.927357 -34.674739 -79.322074 -30.286688 0.000000 0.000000 0.000000 12.992305 -2.186772 1.522232 -0.735688 1.252077 11.486540 8.117244 3.235311 -3.452801 -97.030118 -63.535909 -102.937576 -26.301267 -69.123406 -27.502470 0.000000 0.000000 0.000000 14.698586 -1.364666 1.472704 -2.310202 8.151442 -5.839352 3.462563 -3.369239 7.809791 -24.410688 42.514905 65.937048 -33.474218 57.863614 27.807389 0.000000 0.000000 0.000000 
19.653046 182.903839 81.785156 0.000000 0.000000 0.000000 -1.753952 31.925684 3.361658 -23.006731 30.046009 14.434994 7.101314 -2.990758 6.811737 15.580403 -14.794161 -28.267848 -4.939803 -1.887911 -3.776981 0.000000 0.000000 0.000000 -0.520619 31.309184 3.666951 -31.140694 -7.399715 -3.813086 -2.653570 4.691176 -3.776463 21.544314 -4.041186 11.456872 9.849379 3.041763 -15.288359 0.000000 0.000000 0.000000 1.965467 33.937885 1.840169 4.416907 -0.887541 0.561702 13.085934 -1.124411 2.606292 0.222138 -0.022484 0.030370 0.000000 0.000000 0.000000 10.505433 0.927023 1.771346 -0.739443 4.146537 -6.058014 -51.832905 -82.950202 -46.280983 0.000000 0.000000 0.000000 12.790008 -0.959046 2.485577 -1.288663 1.097447 12.756329 6.704101 3.113445 -5.584913 -91.856858 -62.888857 -99.691372 -26.979397 -68.506873 -28.451565 0.000000 0.000000 0.000000 13.507678 -0.496088 1.598817 -1.933473 7.011354 -6.833828 3.768756 -3.303841 8.125366 -21.879825 40.785214 68.444062 -36.307626 62.578917 30.222713 0.000000 0.000000 0.000000 
18.706776 169.243011 89.149612 0.000000 0.000000 0.000000 -0.960187 33.699501 2.520012 -24.537004 28.619261 15.833357 1.552911 -3.604404 6.391520 18.692940 -16.305822 -26.470262 -7.462550 -1.734349 -2.707131 0.000000 0.000000 0.000000 0.196877 32.154113 3.497394 -27.100432 -5.677260 -2.623772 -4.062442 5.042927 -5.013100 19.569687 -3.444611 16.683601 4.794548 4.467240 -20.042058 0.000000 0.000000 0.000000 3.149914 33.447450 0.319004 3.480131 -1.219773 0.025858 12.447396 0.148494 3.371788 0.221067 -0.200917 -0.011034 0.000000 0.000000 0.000000 9.866640 2.436419 2.724804 -2.977867 3.631990 -2.262167 -93.057701 -84.984205 -85.674703 0.000000 0.000000 0.000000 12.436554 0.407176 4.029256 -1.789456 0.928094 13.653543 4.858655 2.524295 -7.660795 -86.884787 -61.886609 -97.607658 -30.961207 -69.961819 -32.628708 0.000000 0.000000 0.000000 12.163350 0.353446 2.413981 -1.178021 6.610450 -7.090336 3.409690 -3.389394 8.322818 -18.676865 38.615311 69.700093 -36.215517 64.110266 29.476556 0.000000 0.000000 0.000000 
17.955807 154.314270 96.509308 0.000000 0.000000 0.000000 0.176939 34.710492 0.245778 -30.409488 25.391334 19.231128 1.574390 -4.854904 5.404837 21.310583 -17.998561 -24.706005 -7.162416 -1.410471 -1.440933 0.000000 0.000000 0.000000 1.497407 32.404600 1.492614 -24.731775 -3.107798 -1.277936 -2.654355 6.578511 -5.729327 18.971510 -1.851110 22.833568 -1.220647 5.828363 -25.142157 0.000000 0.000000 0.000000 4.058097 32.841325 -2.013548 2.839583 -1.325353 -0.220359 12.044941 1.432359 4.613021 0.156068 -0.325256 -0.013496 0.000000 0.000000 0.000000 9.906658 3.956044 4.345132 -5.955500 3.264948 0.880379 -134.857427 -83.288317 -125.440918 0.000000 0.000000 0.000000 12.026341 1.910165 5.924291 -2.178960 0.953182 13.978846 3.445436 1.245966 -9.432357 -83.632367 -59.310433 -96.742144 -38.297680 -72.923942 -40.144416 0.000000 0.000000 0.000000 11.078129 1.194996 3.858790 -0.138933 7.329166 -6.570952 2.782931 -3.439319 7.855042 -16.483120 35.885459 69.872289 -33.244324 62.136089 25.432761 0.000000 0.000000 0.000000 
17.376917 138.717773 103.439835 0.000000 0.000000 0.000000 1.294615 34.713374 -3.509564 -40.774235 18.971050 23.743915 8.910528 -6.273758 4.379112 23.539624 -19.432325 -22.024222 -7.792328 -1.026354 0.328654 0.000000 0.000000 0.000000 2.863911 32.307942 -2.335838 -24.678850 -0.793924 0.370191 2.578035 7.277635 -5.977286 17.496100 -1.135198 26.761504 -2.172340 5.628382 -29.678951 0.000000 0.000000 0.000000 4.910284 31.723961 -5.341885 2.742687 -0.976449 0.156241 12.182942 2.795616 6.060266 0.152857 -0.362011 -0.001486 0.000000 0.000000 0.000000 10.723571 5.481812 6.294942 -9.338651 3.230312 2.976073 -146.347963 -80.310607 -135.202584 0.000000 0.000000 0.000000 11.856067 3.489759 7.800219 -2.373959 1.091977 13.773725 2.568342 0.014660 -10.483823 -83.688935 -53.879408 -96.362085 -45.637186 -75.671201 -47.639985 0.000000 0.000000 0.000000 10.643818 2.118013 5.630545 1.074036 9.381102 -5.731978 1.966668 -3.444283 7.337457 -17.148182 32.888986 69.077869 -29.682124 57.019280 20.335128 0.000000 0.000000 0.000000 
